<svg width="20" height="18" viewBox="0 0 20 18" fill="none" xmlns="http://www.w3.org/2000/svg">
<path d="M18.7475 10.2654L3.92251 10.2366L8.44939 15.6954C8.66106 15.9511 8.7625 16.2804 8.73138 16.6108C8.70026 16.9413 8.53914 17.2459 8.28346 17.4576C8.02777 17.6692 7.69847 17.7707 7.368 17.7396C7.03753 17.7084 6.73295 17.5473 6.52128 17.2916L0.28589 9.77948C0.243957 9.71974 0.206477 9.657 0.173755 9.59176C0.173876 9.52926 0.17395 9.49176 0.0865716 9.42909C0.0301926 9.28566 0.000824013 9.13303 -5.23629e-05 8.97892C0.00142406 8.82481 0.0313867 8.6723 0.0883237 8.52909C0.0884454 8.46659 0.088518 8.42909 0.17614 8.36676C0.209116 8.30165 0.246839 8.23905 0.289005 8.17948L6.55359 0.691663C6.6714 0.550789 6.81879 0.4376 6.9853 0.360148C7.1518 0.282695 7.33333 0.242881 7.51697 0.243537C7.80903 0.243535 8.09188 0.345806 8.31641 0.532594C8.44278 0.637777 8.54715 0.766858 8.62356 0.912441C8.69997 1.05802 8.7469 1.21725 8.76168 1.381C8.77645 1.54475 8.75878 1.7098 8.70967 1.86671C8.66056 2.02362 8.58097 2.1693 8.47548 2.29541L3.92737 7.73656L18.7523 7.76543C19.0839 7.76607 19.4016 7.89839 19.6355 8.13326C19.8695 8.36814 20.0006 8.68634 19.9999 9.01786C19.9993 9.34938 19.867 9.66706 19.6321 9.90102C19.3972 10.135 19.079 10.2661 18.7475 10.2654Z" fill="white"/>
</svg>
